ffmpeg started on 2025-06-21 at 12:37:01
Report written to "D:\Convert\FFMetrics\reports\psnr_report-6.txt"
Log level: 32
Command line:
ffmpeg -hide_banner -nostdin -i "G:\\\xc0\xed\xe8\xec\xe5\\[\xd2\xee\xef-4]\\\xc4\xe5\xf0\xe6\xe0\xf1\xfc \xc7\xe0 \xd0\xf3\xea\xe8\\Hand_Shakers_[07]_[AniLibria.TV]_[HDTV-Rip_720p]_HEVC.mkv" -i "G:\\\xc0\xed\xe8\xec\xe5\\[\xd2\xee\xef-4]\\\xc4\xe5\xf0\xe6\xe0\xf1\xfc \xc7\xe0 \xd0\xf3\xea\xe8\\Hand_Shakers_[07]_[AniLibria.TV]_[HDTV-Rip_720p].mkv" -lavfi "[0:v]settb=AVTB,setpts=PTS-STARTPTS,format=pix_fmts=yuv420p10,fps=30000/1001,scale=1280:720:flags=bicubic[main];[1:v]settb=AVTB,setpts=PTS-STARTPTS,format=pix_fmts=yuv420p,fps=30000/1001,scale=1280:720:flags=bicubic[ref];[main][ref]psnr=eof_action=endall:stats_file='D\\:/Convert/FFMetrics/logs/psnr_logfile-6.txt'" -f null -
Input #0, matroska,webm, from 'G:\Аниме\[Топ-4]\Держась За Руки\Hand_Shakers_[07]_[AniLibria.TV]_[HDTV-Rip_720p]_HEVC.mkv':
  Metadata:
    ENCODER         : Lavf61.7.100
  Duration: 00:23:59.94, start: -0.021000, bitrate: 1497 kb/s
  Stream #0:0(jpn): Video: hevc (Main 10), yuv420p10le(tv, bt709, progressive), 1280x720 [SAR 1:1 DAR 16:9], 29.97 fps, 29.97 tbr, 1k tbn (default)
      Metadata:
        ENCODER         : Lavc61.19.100 libx265
        BPS             : 1298019
        DURATION        : 00:23:59.805366664
        NUMBER_OF_FRAMES: 43151
        NUMBER_OF_BYTES : 233611882
        _STATISTICS_WRITING_APP: mkvpropedit v66.0.0 ('Josie') 64-bit
        _STATISTICS_WRITING_DATE_UTC: 2025-06-20 16:41:24
        _STATISTICS_TAGS: BPS DURATION NUMBER_OF_FRAMES NUMBER_OF_BYTES
  Stream #0:1(rus): Audio: aac (LC), 48000 Hz, stereo, fltp (default) (forced)
      Metadata:
        title           : Амикири и Анзен
        ENCODER         : Lavc61.19.100 aac
        BPS             : 194421
        DURATION        : 00:23:59.914000000
        NUMBER_OF_FRAMES: 67497
        NUMBER_OF_BYTES : 34993776
        _STATISTICS_WRITING_APP: mkvpropedit v66.0.0 ('Josie') 64-bit
        _STATISTICS_WRITING_DATE_UTC: 2025-06-20 16:41:24
        _STATISTICS_TAGS: BPS DURATION NUMBER_OF_FRAMES NUMBER_OF_BYTES
  Stream #0:2(rus): Subtitle: ass (ssa) (default) (forced)
      Metadata:
        title           : Надписи
        BPS             : 39
        DURATION        : 00:23:45.280000000
        NUMBER_OF_FRAMES: 52
        NUMBER_OF_BYTES : 7090
        _STATISTICS_WRITING_APP: mkvpropedit v66.0.0 ('Josie') 64-bit
        _STATISTICS_WRITING_DATE_UTC: 2025-06-20 16:41:24
        _STATISTICS_TAGS: BPS DURATION NUMBER_OF_FRAMES NUMBER_OF_BYTES
  Stream #0:3(rus): Subtitle: ass (ssa)
      Metadata:
        title           : Субтитры
        BPS             : 166
        DURATION        : 00:23:45.280000000
        NUMBER_OF_FRAMES: 398
        NUMBER_OF_BYTES : 29721
        _STATISTICS_WRITING_APP: mkvpropedit v66.0.0 ('Josie') 64-bit
        _STATISTICS_WRITING_DATE_UTC: 2025-06-20 16:41:24
        _STATISTICS_TAGS: BPS DURATION NUMBER_OF_FRAMES NUMBER_OF_BYTES
Input #1, matroska,webm, from 'G:\Аниме\[Топ-4]\Держась За Руки\Hand_Shakers_[07]_[AniLibria.TV]_[HDTV-Rip_720p].mkv':
  Metadata:
    encoder         : libebml v1.4.2 + libmatroska v1.6.4
    creation_time   : 2024-12-27T17:06:48.000000Z
  Duration: 00:23:59.91, start: 0.000000, bitrate: 3393 kb/s
  Stream #1:0(jpn): Video: h264 (High), yuv420p(tv, bt709, progressive), 1280x720 [SAR 1:1 DAR 16:9], 29.97 fps, 29.97 tbr, 1k tbn (default)
      Metadata:
        BPS             : 3192861
        DURATION        : 00:23:59.805000000
        NUMBER_OF_FRAMES: 43151
        NUMBER_OF_BYTES : 574637187
        _STATISTICS_WRITING_APP: mkvmerge v66.0.0 ('Josie') 64-bit
        _STATISTICS_WRITING_DATE_UTC: 2024-12-27 17:06:48
        _STATISTICS_TAGS: BPS DURATION NUMBER_OF_FRAMES NUMBER_OF_BYTES
  Stream #1:1(rus): Audio: aac (LC), 48000 Hz, stereo, fltp (default) (forced)
      Metadata:
        title           : Амикири и Анзен
        BPS             : 189375
        DURATION        : 00:23:59.914000000
        NUMBER_OF_FRAMES: 67496
        NUMBER_OF_BYTES : 34085480
        _STATISTICS_WRITING_APP: mkvmerge v66.0.0 ('Josie') 64-bit
        _STATISTICS_WRITING_DATE_UTC: 2024-12-27 17:06:48
        _STATISTICS_TAGS: BPS DURATION NUMBER_OF_FRAMES NUMBER_OF_BYTES
  Stream #1:2(rus): Subtitle: ass (ssa) (default) (forced)
      Metadata:
        title           : Надписи
        BPS             : 39
        DURATION        : 00:23:45.280000000
        NUMBER_OF_FRAMES: 52
        NUMBER_OF_BYTES : 7090
        _STATISTICS_WRITING_APP: mkvmerge v66.0.0 ('Josie') 64-bit
        _STATISTICS_WRITING_DATE_UTC: 2024-12-27 17:06:48
        _STATISTICS_TAGS: BPS DURATION NUMBER_OF_FRAMES NUMBER_OF_BYTES
  Stream #1:3(rus): Subtitle: ass (ssa)
      Metadata:
        title           : Субтитры
        BPS             : 166
        DURATION        : 00:23:45.280000000
        NUMBER_OF_FRAMES: 398
        NUMBER_OF_BYTES : 29721
        _STATISTICS_WRITING_APP: mkvmerge v66.0.0 ('Josie') 64-bit
        _STATISTICS_WRITING_DATE_UTC: 2024-12-27 17:06:48
        _STATISTICS_TAGS: BPS DURATION NUMBER_OF_FRAMES NUMBER_OF_BYTES
  Stream #1:4: Attachment: ttf
      Metadata:
        filename        : 7966.ttf
        mimetype        : application/x-truetype-font
  Stream #1:5: Attachment: ttf
      Metadata:
        filename        : 8651.ttf
        mimetype        : application/x-truetype-font
  Stream #1:6: Attachment: ttf
      Metadata:
        filename        : 10322.ttf
        mimetype        : application/x-truetype-font
  Stream #1:7: Attachment: ttf
      Metadata:
        filename        : 10200.ttf
        mimetype        : application/x-truetype-font
  Stream #1:8: Attachment: ttf
      Metadata:
        filename        : 9903.otf
        mimetype        : application/x-truetype-font
  Stream #1:9: Attachment: ttf
      Metadata:
        filename        : impact.ttf
        mimetype        : application/x-truetype-font
  Stream #1:10: Attachment: ttf
      Metadata:
        filename        : 9371.otf
        mimetype        : application/x-truetype-font
  Stream #1:11: Attachment: ttf
      Metadata:
        filename        : 10436_0.ttf
        mimetype        : application/x-truetype-font
  Stream #1:12: Attachment: ttf
      Metadata:
        filename        : 10351.ttf
        mimetype        : application/x-truetype-font
  Stream #1:13: Attachment: ttf
      Metadata:
        filename        : 10423.ttf
        mimetype        : application/x-truetype-font
  Stream #1:14: Attachment: ttf
      Metadata:
        filename        : 10175.otf
        mimetype        : application/x-truetype-font
Stream mapping:
  Stream #0:0 (hevc) -> settb:default
  Stream #1:0 (h264) -> settb:default
  psnr:default -> Stream #0:0 (wrapped_avframe)
  Stream #0:1 -> #0:1 (aac (native) -> pcm_s16le (native))
Output #0, null, to 'pipe:':
  Metadata:
    encoder         : Lavf61.7.100
  Stream #0:0: Video: wrapped_avframe, yuv420p10le(tv, bt709, progressive), 1280x720 [SAR 1:1 DAR 16:9], q=2-31, 200 kb/s, 29.97 fps, 29.97 tbn
      Metadata:
        encoder         : Lavc61.19.100 wrapped_avframe
  Stream #0:1(rus): Audio: pcm_s16le, 48000 Hz, stereo, s16, 1536 kb/s (default) (forced)
      Metadata:
        title           : Амикири и Анзен
        _STATISTICS_TAGS: BPS DURATION NUMBER_OF_FRAMES NUMBER_OF_BYTES
        BPS             : 194421
        DURATION        : 00:23:59.914000000
        NUMBER_OF_FRAMES: 67497
        NUMBER_OF_BYTES : 34993776
        _STATISTICS_WRITING_APP: mkvpropedit v66.0.0 ('Josie') 64-bit
        _STATISTICS_WRITING_DATE_UTC: 2025-06-20 16:41:24
        encoder         : Lavc61.19.100 pcm_s16le
frame=  292 fps=0.0 q=-0.0 size=N/A time=00:00:09.74 bitrate=N/A speed=19.3x    frame=  766 fps=743 q=-0.0 size=N/A time=00:00:25.55 bitrate=N/A speed=24.8x    frame= 1277 fps=829 q=-0.0 size=N/A time=00:00:42.60 bitrate=N/A speed=27.7x    frame= 1860 fps=900 q=-0.0 size=N/A time=00:01:02.06 bitrate=N/A speed=  30x    frame= 2377 fps=925 q=-0.0 size=N/A time=00:01:19.31 bitrate=N/A speed=30.9x    frame= 2970 fps=960 q=-0.0 size=N/A time=00:01:39.09 bitrate=N/A speed=  32x    frame= 3515 fps=977 q=-0.0 size=N/A time=00:01:57.28 bitrate=N/A speed=32.6x    frame= 4051 fps=982 q=-0.0 size=N/A time=00:02:15.16 bitrate=N/A speed=32.8x    frame= 4596 fps=991 q=-0.0 size=N/A time=00:02:33.35 bitrate=N/A speed=33.1x    frame= 5089 fps=988 q=-0.0 size=N/A time=00:02:49.80 bitrate=N/A speed=  33x    frame= 5666 fps=999 q=-0.0 size=N/A time=00:03:09.05 bitrate=N/A speed=33.3x    frame= 6176 fps=1000 q=-0.0 size=N/A time=00:03:26.07 bitrate=N/A speed=33.4x    frame= 6649 fps=993 q=-0.0 size=N/A time=00:03:41.85 bitrate=N/A speed=33.1x    frame= 7156 fps=992 q=-0.0 size=N/A time=00:03:58.77 bitrate=N/A speed=33.1x    frame= 7459 fps=965 q=-0.0 size=N/A time=00:04:08.88 bitrate=N/A speed=32.2x    frame= 7729 fps=938 q=-0.0 size=N/A time=00:04:17.89 bitrate=N/A speed=31.3x    frame= 7921 fps=904 q=-0.0 size=N/A time=00:04:24.29 bitrate=N/A speed=30.2x    frame= 8153 fps=879 q=-0.0 size=N/A time=00:04:32.03 bitrate=N/A speed=29.3x    frame= 8403 fps=857 q=-0.0 size=N/A time=00:04:40.38 bitrate=N/A speed=28.6x    frame= 8621 fps=837 q=-0.0 size=N/A time=00:04:47.65 bitrate=N/A speed=27.9x    frame= 8831 fps=816 q=-0.0 size=N/A time=00:04:54.66 bitrate=N/A speed=27.2x    frame= 9037 fps=796 q=-0.0 size=N/A time=00:05:01.53 bitrate=N/A speed=26.6x    frame= 9256 fps=780 q=-0.0 size=N/A time=00:05:08.84 bitrate=N/A speed=  26x    frame= 9465 fps=765 q=-0.0 size=N/A time=00:05:15.81 bitrate=N/A speed=25.5x    frame= 9705 fps=753 q=-0.0 size=N/A time=00:05:23.82 bitrate=N/A speed=25.1x    frame= 9961 fps=743 q=-0.0 size=N/A time=00:05:32.36 bitrate=N/A speed=24.8x    frame=10431 fps=750 q=-0.0 size=N/A time=00:05:48.04 bitrate=N/A speed=  25x    frame=10822 fps=750 q=-0.0 size=N/A time=00:06:01.09 bitrate=N/A speed=  25x    frame=11149 fps=745 q=-0.0 size=N/A time=00:06:12.00 bitrate=N/A speed=24.9x    frame=11729 fps=758 q=-0.0 size=N/A time=00:06:31.35 bitrate=N/A speed=25.3x    frame=12249 fps=767 q=-0.0 size=N/A time=00:06:48.70 bitrate=N/A speed=25.6x    frame=12786 fps=775 q=-0.0 size=N/A time=00:07:06.62 bitrate=N/A speed=25.9x    frame=13395 fps=787 q=-0.0 size=N/A time=00:07:26.94 bitrate=N/A speed=26.3x    frame=13990 fps=798 q=-0.0 size=N/A time=00:07:46.79 bitrate=N/A speed=26.6x    frame=14559 fps=807 q=-0.0 size=N/A time=00:08:05.78 bitrate=N/A speed=26.9x    frame=15064 fps=812 q=-0.0 size=N/A time=00:08:22.63 bitrate=N/A speed=27.1x    frame=15646 fps=820 q=-0.0 size=N/A time=00:08:42.05 bitrate=N/A speed=27.4x    frame=16142 fps=824 q=-0.0 size=N/A time=00:08:58.60 bitrate=N/A speed=27.5x    frame=16705 fps=831 q=-0.0 size=N/A time=00:09:17.39 bitrate=N/A speed=27.7x    frame=17246 fps=836 q=-0.0 size=N/A time=00:09:35.44 bitrate=N/A speed=27.9x    frame=17802 fps=842 q=-0.0 size=N/A time=00:09:53.99 bitrate=N/A speed=28.1x    frame=18407 fps=850 q=-0.0 size=N/A time=00:10:14.18 bitrate=N/A speed=28.4x    frame=18899 fps=853 q=-0.0 size=N/A time=00:10:30.59 bitrate=N/A speed=28.4x    frame=19464 fps=858 q=-0.0 size=N/A time=00:10:49.44 bitrate=N/A speed=28.6x    frame=19954 fps=860 q=-0.0 size=N/A time=00:11:05.79 bitrate=N/A speed=28.7x    frame=20485 fps=864 q=-0.0 size=N/A time=00:11:23.54 bitrate=N/A speed=28.8x    frame=21022 fps=867 q=-0.0 size=N/A time=00:11:41.43 bitrate=N/A speed=28.9x    frame=21427 fps=866 q=-0.0 size=N/A time=00:11:54.94 bitrate=N/A speed=28.9x    frame=21885 fps=866 q=-0.0 size=N/A time=00:12:10.22 bitrate=N/A speed=28.9x    frame=22276 fps=864 q=-0.0 size=N/A time=00:12:23.27 bitrate=N/A speed=28.8x    frame=22815 fps=868 q=-0.0 size=N/A time=00:12:41.26 bitrate=N/A speed=  29x    frame=23300 fps=869 q=-0.0 size=N/A time=00:12:57.44 bitrate=N/A speed=  29x    frame=23818 fps=872 q=-0.0 size=N/A time=00:13:14.72 bitrate=N/A speed=29.1x    frame=24288 fps=872 q=-0.0 size=N/A time=00:13:30.40 bitrate=N/A speed=29.1x    frame=24620 fps=868 q=-0.0 size=N/A time=00:13:41.48 bitrate=N/A speed=  29x    frame=24967 fps=865 q=-0.0 size=N/A time=00:13:53.06 bitrate=N/A speed=28.9x    frame=25383 fps=864 q=-0.0 size=N/A time=00:14:06.94 bitrate=N/A speed=28.8x    frame=25807 fps=863 q=-0.0 size=N/A time=00:14:21.09 bitrate=N/A speed=28.8x    frame=26229 fps=862 q=-0.0 size=N/A time=00:14:35.17 bitrate=N/A speed=28.8x    frame=26642 fps=861 q=-0.0 size=N/A time=00:14:48.95 bitrate=N/A speed=28.7x    frame=27110 fps=862 q=-0.0 size=N/A time=00:15:04.57 bitrate=N/A speed=28.8x    frame=27506 fps=860 q=-0.0 size=N/A time=00:15:17.78 bitrate=N/A speed=28.7x    frame=27908 fps=859 q=-0.0 size=N/A time=00:15:31.19 bitrate=N/A speed=28.7x    frame=28400 fps=861 q=-0.0 size=N/A time=00:15:47.61 bitrate=N/A speed=28.7x    frame=28847 fps=861 q=-0.0 size=N/A time=00:16:02.52 bitrate=N/A speed=28.7x    frame=29251 fps=859 q=-0.0 size=N/A time=00:16:16.00 bitrate=N/A speed=28.7x    frame=29774 fps=862 q=-0.0 size=N/A time=00:16:33.45 bitrate=N/A speed=28.8x    frame=30296 fps=864 q=-0.0 size=N/A time=00:16:50.87 bitrate=N/A speed=28.8x    frame=30717 fps=863 q=-0.0 size=N/A time=00:17:04.92 bitrate=N/A speed=28.8x    frame=31188 fps=864 q=-0.0 size=N/A time=00:17:20.63 bitrate=N/A speed=28.8x    frame=31717 fps=867 q=-0.0 size=N/A time=00:17:38.29 bitrate=N/A speed=28.9x    frame=32303 fps=870 q=-0.0 size=N/A time=00:17:57.84 bitrate=N/A speed=  29x    frame=32758 fps=870 q=-0.0 size=N/A time=00:18:13.02 bitrate=N/A speed=  29x    frame=33253 fps=871 q=-0.0 size=N/A time=00:18:29.54 bitrate=N/A speed=29.1x    frame=33755 fps=873 q=-0.0 size=N/A time=00:18:46.29 bitrate=N/A speed=29.1x    frame=34232 fps=874 q=-0.0 size=N/A time=00:19:02.20 bitrate=N/A speed=29.2x    frame=34697 fps=874 q=-0.0 size=N/A time=00:19:17.72 bitrate=N/A speed=29.2x    frame=35201 fps=875 q=-0.0 size=N/A time=00:19:34.54 bitrate=N/A speed=29.2x    frame=35593 fps=874 q=-0.0 size=N/A time=00:19:47.61 bitrate=N/A speed=29.2x    frame=36066 fps=874 q=-0.0 size=N/A time=00:20:03.40 bitrate=N/A speed=29.2x    frame=36552 fps=875 q=-0.0 size=N/A time=00:20:19.61 bitrate=N/A speed=29.2x    frame=37045 fps=876 q=-0.0 size=N/A time=00:20:36.06 bitrate=N/A speed=29.2x    frame=37541 fps=877 q=-0.0 size=N/A time=00:20:52.61 bitrate=N/A speed=29.3x    frame=37900 fps=875 q=-0.0 size=N/A time=00:21:04.59 bitrate=N/A speed=29.2x    frame=38407 fps=876 q=-0.0 size=N/A time=00:21:21.51 bitrate=N/A speed=29.2x    frame=38902 fps=877 q=-0.0 size=N/A time=00:21:38.03 bitrate=N/A speed=29.3x    frame=39380 fps=878 q=-0.0 size=N/A time=00:21:53.97 bitrate=N/A speed=29.3x    frame=39743 fps=876 q=-0.0 size=N/A time=00:22:06.09 bitrate=N/A speed=29.2x    frame=40091 fps=874 q=-0.0 size=N/A time=00:22:17.70 bitrate=N/A speed=29.1x    frame=40316 fps=869 q=-0.0 size=N/A time=00:22:25.21 bitrate=N/A speed=  29x    frame=40631 fps=866 q=-0.0 size=N/A time=00:22:35.72 bitrate=N/A speed=28.9x    frame=40941 fps=863 q=-0.0 size=N/A time=00:22:46.06 bitrate=N/A speed=28.8x    frame=41320 fps=862 q=-0.0 size=N/A time=00:22:58.71 bitrate=N/A speed=28.8x    frame=41692 fps=860 q=-0.0 size=N/A time=00:23:11.12 bitrate=N/A speed=28.7x    frame=42056 fps=859 q=-0.0 size=N/A time=00:23:23.26 bitrate=N/A speed=28.7x    frame=42315 fps=855 q=-0.0 size=N/A time=00:23:31.91 bitrate=N/A speed=28.5x    frame=42584 fps=852 q=-0.0 size=N/A time=00:23:40.88 bitrate=N/A speed=28.4x    frame=42841 fps=848 q=-0.0 size=N/A time=00:23:49.46 bitrate=N/A speed=28.3x    [Parsed_psnr_10 @ 000001d1e004a1c0] PSNR y:43.830216 u:45.945810 v:46.449771 average:44.484005 min:35.269332 max:inf
[out#0/null @ 000001d1df65be00] video:18541KiB audio:269988KiB subtitle:0KiB other streams:0KiB global headers:0KiB muxing overhead: unknown
frame=43151 fps=850 q=-0.0 Lsize=N/A time=00:23:59.80 bitrate=N/A speed=28.4x    
